<?xml version="1.0" encoding="utf-8"?>
<!-- Generator: Adobe Illustrator 25.2.3, SVG Export Plug-In . SVG Version: 6.00 Build 0)  -->
<svg version="1.1" id="katman_1" xmlns="http://www.w3.org/2000/svg" xmlns:xlink="http://www.w3.org/1999/xlink" x="0px" y="0px"
	 viewBox="0 0 734 732" style="enable-background:new 0 0 734 732;" xml:space="preserve">
<style type="text/css">
	.st0{fill:#3AB5A1;}
	.st1{fill:#54BFAD;}
	.st2{fill:#3CB6A2;}
	.st3{fill:#42B8A5;}
	.st4{fill:#44B9A6;}
	.st5{fill:#5DC2B2;}
</style>
<path class="st0" d="M572.7,318.5c-46,0-92,0-138,0c-9.9,0-17.3-6.1-19.2-15.9c-0.8-4.2-1.3-8.5-1.3-12.8c0-85.6,0-171.2,0-256.6
	c0-23.1,6.3-29.4,29.5-29.4c86.7,0,173.1,0,259.7,0c3.5,0,7,0.1,10.5,1c11.7,2.2,16.5,8,17,20c0.1,3.8,0.1,7.3,0.1,11.1
	c0,85.1,0,170.3,0,255.5c0,4.3-0.3,9.1-1.4,13.3c-2.1,8.5-8.9,13.9-17.6,13.9C665.6,318.5,619.2,318.5,572.7,318.5L572.7,318.5z
	 M458.2,276.2c77,0,153.1,0,229.7,0c0-76.8,0-153.1,0-229.7c-76.8,0-153.1,0-229.7,0C458.2,123.3,458.2,199.6,458.2,276.2z"/>
<path class="st1" d="M160.8,317.5c-45.2,0-90.1,0-135.1,0c-14.8,0-21.2-6.3-22.4-21.1c-0.1-2.7-0.1-5.5-0.1-8.1
	c0-85.4,0-170.7,0-256.1C3.2,9,9.3,2.8,32.7,2.8c86,0,171.9,0,258,0c4.5,0,8.9,0.4,13.3,1.3c9.1,1.5,13.3,5.7,14.8,14.8
	c0.8,4.3,1.1,8.9,1.1,13.3c0,85.6,0,171.2,0,256.6c0,4.2-0.1,8.5-1.1,12.6c-2.2,10.3-9.2,15.9-20,15.9
	C252.8,317.5,206.9,317.5,160.8,317.5z M46.4,45.4c0,76.8,0,153.1,0,229.9c77,0,153.5,0,230.3,0c0-76.6,0-153.1,0-229.9
	C199.8,45.4,123.5,45.4,46.4,45.4z"/>
<path class="st0" d="M457.1,455.9c0,2.8,0,5,0,7c0,34.8,0,69.8,0,104.6c0,10.2-9.4,22-19.6,23.9c-2.7,0.4-6.1,0-8.4-1.4
	c-8.5-5.3-15.3-12.3-15.3-23.2c0-42.5,0-84.9,0.3-127.4c0.1-17.3,8.5-25,26-25c28.7,0,57.3-0.1,86,0.1c8.5,0,15.8,3.9,19.2,11.9
	c3.2,7.7,2.8,15.6-2.8,22.5c-5,5.9-12,7-19,7c-19.8,0.1-39.8,0-59.7,0C461.9,455.9,459.8,455.9,457.1,455.9z"/>
<path class="st2" d="M605.2,724.6c-8.4-4.5-7.7-13.3-6.4-20.8s7.3-11.7,14.2-14.2c3.2-1.1,6.9-1.4,10.3-1.4
	c19.8-0.1,39.8-0.3,59.7,0c5.3,0,7-1.1,6.9-6.7c-0.3-36.1-0.3-72.2,0.1-108.1c0-4.2,1.8-9.4,4.6-12.5c5-5.9,11.9-9.9,20.1-7.5
	c8,2.4,16.1,13.7,16.2,22.5c0.1,17.5,0,35.1,0,52.6c0.3,4.3,0.3,8.9,0.1,13.4c0.2,0,0.2,0,0,0c0,20.3,0,40.6,0,60.7
	c0,3.9-0.3,7.8-1.1,11.6c-1.7,9.1-7,14-16.4,14.8"/>
<path class="st0" d="M687.8,415.2c8.1,0,16.4-0.3,24.5,0c11.6,0.6,17.3,6.9,17.3,18.3c0.1,15.8-5,21.7-20.8,22.2
	c-15.1,0.4-30.3,0.3-45.4-0.1c-11.9-0.4-17.8-7.3-17.9-19c-0.1-15.1,4.6-20.4,19.7-21.4c7.5-0.4,15.1,0,22.8,0
	C687.8,415.2,687.8,415.2,687.8,415.2z"/>
<path class="st2" d="M435.6,729.7c-13.1-0.3-19.6-7-19.7-20c0-14.5,5.5-20.4,20.3-20.4c16.8,0,33.6,0,50.1,1.1
	c9.5,0.6,13.9,6.6,13.7,16.2c0,4.1,0.4,8.4-1,12c-2.8,6.9-8.3,11.1-16.2,11.1"/>
<path class="st3" d="M572.9,592.1c-12,0-20.8-8.5-20.8-20.1c0-10.8,9.7-19.8,21.4-19.7c11.9,0,20.3,8.4,20.4,20
	C593.7,581.7,585.6,593.5,572.9,592.1z"/>
<path class="st4" d="M572.9,180.6c-12.5,0-20.8-7.7-21-18.9c0-10.9,10.6-21.5,21.2-21.4c10.5,0.1,20.8,10.8,20.6,21.4
	C593.6,173.2,585.5,180.6,572.9,180.6z"/>
<path class="st5" d="M161.1,140.7c9.5-2.1,21.4,12.3,20.8,21c-0.6,10.5-10.8,20.3-21.8,20.3c-10.5,0-20-9.7-20.1-20.3
	C139.8,152.5,149.9,138.8,161.1,140.7z"/>
<path class="st1" d="M160,729.2c-45.2,0-90.1,0-135.1,0c-14.8,0-21.2-6.3-22.4-21.1c-0.1-2.7-0.1-5.5-0.1-8.1
	c0-85.4,0-170.7,0-256.1c0-23.2,6.1-29.4,29.5-29.4c86,0,171.9,0,258,0c4.5,0,8.9,0.4,13.3,1.3c9.1,1.5,13.3,5.7,14.8,14.8
	c0.8,4.3,1.1,8.9,1.1,13.3c0,85.6,0,171.2,0,256.6c0,4.2-0.1,8.5-1.1,12.6c-2.2,10.3-9.2,15.9-20,15.9
	C252,729.2,206.1,729.2,160,729.2z M45.6,457.1c0,76.8,0,153.1,0,229.9c77,0,153.5,0,230.3,0c0-76.6,0-153.1,0-229.9
	C199,457.1,122.7,457.1,45.6,457.1z"/>
<path class="st5" d="M161.3,551.4c9.5-2.1,21.4,12.3,20.8,21c-0.6,10.5-10.8,20.3-21.8,20.3c-10.5,0-20-9.7-20.1-20.3
	C140,563.2,150.1,549.5,161.3,551.4z"/>
</svg>
