<?xml version="1.0" encoding="utf-8"?>
<!-- Generator: Adobe Illustrator 25.2.3, SVG Export Plug-In . SVG Version: 6.00 Build 0)  -->
<svg version="1.1" id="katman_1" xmlns="http://www.w3.org/2000/svg" xmlns:xlink="http://www.w3.org/1999/xlink" x="0px" y="0px"
	 viewBox="0 0 1928.8 759.4" style="enable-background:new 0 0 1928.8 759.4;" xml:space="preserve">
<style type="text/css">
	.st0{fill:#FFFFFF;}
</style>
<g>
	<path class="st0" d="M174.1,434.2c44.3,0,88.5,0,132.9,0c16.4,0,24.3,7.5,25.5,23.9c0.1,2.7,0.1,5.5,0.1,8.1c0,84,0,168.1,0,252
		c0,5-0.6,10.2-1.4,15.1c-1.5,9.1-7.3,14.4-16.5,15.3c-4.1,0.4-8.1,0.6-12.3,0.6c-85.6,0-171.3,0-256.9,0c-4.2,0-8.5,0-12.8-0.8
		c-8-1.3-13.7-5.7-15.5-13.9c-1.1-4.6-1.5-9.7-1.5-14.4c-0.1-85.6,0-171.2,0-256.7c0-3.9,0.1-7.8,1-11.6
		c2.4-11.6,9.9-17.8,21.8-17.8c42,0,83.9,0,125.9,0C167.4,434.2,170.8,434.2,174.1,434.2z M289.5,706.6c0-2.5,0-4.2,0-5.9
		c0-73,0-145.7,0.1-218.6c0-5-1.7-6.1-6.4-6.1c-72.2,0.1-144.3,0-216.5,0.1c-9.8,0-9.8,0-9.8,10.2c0,71,0,142.2-0.1,213.3
		c0,5.5,1.4,7.1,7.1,7.1c73-0.1,145.8-0.1,218.7-0.1C284.8,706.6,286.7,706.6,289.5,706.6z"/>
	<path class="st0" d="M586,338.3c-46,0-92,0-138,0c-9.9,0-17.3-6.1-19.2-15.9c-0.8-4.2-1.3-8.5-1.3-12.8c0-85.6,0-171.2,0-256.6
		c0-23.1,6.3-29.4,29.5-29.4c86.7,0,173.1,0,259.7,0c3.5,0,7,0.1,10.5,1c11.7,2.2,16.5,8,17,20c0.1,3.8,0.1,7.3,0.1,11.1
		c0,85.1,0,170.3,0,255.5c0,4.3-0.3,9.1-1.4,13.3c-2.1,8.5-8.9,13.9-17.6,13.9C678.9,338.3,632.5,338.3,586,338.3L586,338.3z
		 M471.5,296c77,0,153.1,0,229.7,0c0-76.8,0-153.1,0-229.7c-76.8,0-153.1,0-229.7,0C471.5,143.1,471.5,219.4,471.5,296z"/>
	<path class="st0" d="M173.1,338.3c-45.2,0-90.1,0-135.1,0c-14.8,0-21.2-6.3-22.4-21.1c-0.1-2.7-0.1-5.5-0.1-8.1
		c0-85.4,0-170.7,0-256.1c0-23.2,6.1-29.4,29.5-29.4c86,0,171.9,0,258,0c4.5,0,8.9,0.4,13.3,1.3c9.1,1.5,13.3,5.7,14.8,14.8
		c0.8,4.3,1.1,8.9,1.1,13.3c0,85.6,0,171.2,0,256.6c0,4.2-0.1,8.5-1.1,12.6c-2.2,10.3-9.2,15.9-20,15.9
		C265.1,338.3,219.2,338.3,173.1,338.3z M58.7,66.2c0,76.8,0,153.1,0,229.9c77,0,153.5,0,230.3,0c0-76.6,0-153.1,0-229.9
		C212.1,66.2,135.8,66.2,58.7,66.2z"/>
	<path class="st0" d="M889.7,505.5c0,79.5,0,158.9,0,238.7c-10,0-19.5,0-29.8,0c0-2,0-3.9,0-5.8c0-95.6,0-191.2,0-286.7
		c0-10,2-11.3,12-12.4c10.7-1.2,16,4.5,20.5,12.4c27.3,46.5,54.5,93.2,81.9,139.7c13.9,23.6,27.9,47.1,41.9,70.5
		c0.6,0.9,1.3,1.7,2.6,3.5c4.5-7.2,8.7-14,12.7-21c21-36,41.8-72,62.7-107.8c16.6-28.6,33.4-57.2,50.1-85.7
		c6.8-11.6,13.7-14.4,26.9-11c1.9,0.4,3.5,3,4.6,5.1c0.6,1,0.1,2.9,0.1,4.3c0,96.5,0,192.9,0,289.4c0,1.7,0,3.5,0,5.6
		c-9.5,0-18.3,0-27.9,0c0-2.5,0-4.5,0-6.6c0-74.7,0-149.3,0-224c0-1.4,0.3-2.9-0.1-4.3c-0.3-1.4-1.3-2.6-2-3.9
		c-1.3,0.7-3,1.2-3.6,2.3c-7.8,12.6-15.5,25.1-23,37.9c-19.4,32.9-38.6,65.9-57.8,98.7c-9.8,16.8-19.5,33.5-29.5,50.3
		c-2.2,3.5-4.8,6.9-7.7,9.7c-4.3,4-8.1,4-12.4,0c-3-2.9-5.9-6.4-8.1-10c-21.7-36.6-43.2-73.1-64.9-109.7
		c-14.7-24.9-29.6-49.7-44.6-74.6c-1-1.7-2.3-3.2-3.3-4.8C890.5,505.4,890.1,505.5,889.7,505.5z"/>
	<path class="st0" d="M1402.6,270.3c-5.6,4.9-11.3,10-17,14.7c-18.1,14.9-38.9,22-62.3,22.5c-21.1,0.6-41.3-2.3-60.1-12.3
		c-29.5-15.6-47.7-39.9-54-72.2c-6.6-33.1,0-64.3,21.4-90.4c25-30.6,58.1-43.2,97.5-37.3c26.9,4,49.7,16.2,70.2,33.4
		c1.7,1.4,3.8,2.6,6.8,4.8c0-12.4,0-23.7,0-35.4c9.8,0,18.9,0,28.3,0c0.1,1.3,0.3,2.6,0.3,3.8c-0.1,66.5,0.3,133.1-0.4,199.5
		c-0.1,18.9-4,37.6-13.9,54.3c-11.6,19.6-28.8,32.1-50.4,38c-32.1,8.8-64.2,7.9-96.1-0.6c-16.8-4.5-32.4-12-46.7-22.1
		c-4.2-2.9-4.6-6.1-2-10c2.7-4.2,4.6-10.4,8.4-12.1c3.5-1.4,9.1,1.9,13.7,3.5c14,5.1,27.9,10.8,42,15.5c19.2,6.4,39,5.8,58.8,2.9
		c14-1.9,26.4-6.9,36.6-16.8c10.3-10.1,15.9-22.8,17.5-36.8c1.9-15.5,2.2-31.1,3.2-46.7C1403.9,270.6,1403.2,270.4,1402.6,270.3z
		 M1319.8,119.7c-5.8,0.4-11.6,0.6-17.2,1.6c-25.3,4.6-44.5,17.8-56.3,40.9c-7.9,15.5-9.5,31.9-7.7,48.8c3.2,28.3,16.2,50,42.6,61.7
		c25.7,11.4,52.3,11.3,78.2,0.3c17.9-7.5,30.5-21.1,38.4-39.2c5.9-13.7,6.8-27.7,5.8-42.3c-1.7-23.3-11.7-42-30.3-56.1
		C1357.5,123.8,1339.2,120,1319.8,119.7z"/>
	<path class="st0" d="M857.6,313.2c0-2.2,0-4,0-6.1c0-19.4,0-38.6,0-57.9c0-71.5,0-143,0-214.6c0-9.7,0.9-10.7,10.4-10.7
		c40.7,0,81.6-0.9,122.4,0.3c42.3,1.2,78.9,16.9,107.5,48.8c23.1,25.9,33.7,56.8,34.8,91.3c0.7,23.1-1.6,45.7-11.3,67
		c-17.8,39-47.5,64.7-89,75.7c-14.4,3.8-29.8,5.5-44.8,6.4c-22,1.3-43.9,1.4-65.9,1.3C900.8,314.9,879.7,313.9,857.6,313.2z
		 M887.8,49.1c0,2.5,0,4.8,0,7.1c0,74.1,0,148.1,0,222.2c0,12.4,0,12.3,12.3,12.1c31.5-0.3,63,0,94.5-3.6
		c13.3-1.4,26.3-3.5,38.9-8.4c43.1-16.9,68.2-58.5,69.2-102.4c0.3-13.1-1.2-26.2-4.2-39c-5.9-24.4-17.9-44.9-37.9-60.5
		c-17.6-13.7-38.3-20.1-60-22.3c-23.8-2.5-47.7-3.2-71.7-4.6c-5.9-0.3-11.8-0.6-17.8-0.7C903.5,49.1,896,49.1,887.8,49.1z"/>
	<path class="st0" d="M1428.2,640c-1.9,0-3.8,0-5.8,0c-58.9,0-118,0-177,0c-8.4,0-8.5,0-7.4,8.5c4.6,32.1,21.7,54,52.6,65.2
		c13,4.6,26.2,8.1,40,7.5c22.5-0.9,42.5-8.5,60.1-22.5c1.6-1.3,3-2.5,4.6-3.8c2.5-1.9,4.9-2.2,7.2,0.4c3.6,4.2,7.2,8.5,10.7,12.9
		c2.5,3.2,0.1,5.3-2,7.4c-14.7,14.4-31.9,24.6-52.3,28.9c-19.1,4-38.1,3-57.4,0.6c-17.2-2.2-32.8-8.1-47.1-17.3
		c-19.2-12.6-31.9-30.3-39.9-51.7c-11.7-31.6-13.3-63.6,0.9-94.6c11.8-26,29.9-47.2,57.5-58.2c11.3-4.5,23.1-6.9,35.5-8.4
		c17.2-2,33.5,0.1,49.3,5.9c35,12.7,56.6,38.3,67.5,73.4C1429.6,608.1,1430.8,628.3,1428.2,640z M1318.8,617c25.3,0,50.6-0.1,75.9,0
		c4.5,0,6.2-1.2,5.5-5.9c-2-12.1-5.3-23.8-12.1-34.4c-19.9-30.5-49.4-39.9-83.1-35.3c-35.8,4.9-63.1,32.1-66.6,68.3
		c-0.6,6.6-0.6,6.9,6.4,6.9C1269.2,617,1294.1,617,1318.8,617z"/>
	<path class="st0" d="M1846.9,315.7c-8.4,0-16.6,0.1-24.9-0.1c-1,0-2.5-2.6-2.6-4.2c-0.3-5.5-0.1-11.1-0.1-18.1
		c-3.9,1.6-6.9,2.6-9.7,3.8c-12.4,5.8-24.3,13.1-37.3,17c-20.8,6.2-42.3,5.3-63.4-0.6c-11.1-3-21.4-7.2-29.8-15.6
		c-10-10.1-14.9-22.4-15.7-36.3c-0.7-13.3-0.6-26.6,6.5-38.9c6.2-10.8,15.5-18.2,26.4-23c10.8-4.8,22.4-6.8,34.2-6.9
		c26.9-0.6,53.7-1.3,80.6-2c1.6,0,4-1.3,4.3-2.5c4.9-19.9-0.9-49.1-24.7-60.8c-10.4-5.1-21.5-6.8-32.9-7.4c-26.6-1.3-50.6,6.1-72,22
		c-3.2,2.3-5.1,1.7-6.9-1.3c-2.5-4-4.9-7.9-7.5-11.8c-2.3-3.6-2-6.5,1.6-9.4c13.6-11,29-17.8,45.9-22c16.9-4.2,33.8-4.8,51-3.3
		c25.7,2.2,49.4,9,64.7,32.1c6.4,9.8,9.5,20.7,10.5,32.5c4.2,50.7,0.9,101.6,1.9,152.4C1847.3,312.5,1847.2,313.8,1846.9,315.7z
		 M1817.3,229c0-2.7-0.1-5.5,0-8.1c0.3-4-1.3-5.3-5.3-5.2c-27.2,0.1-54.5,0.1-81.8,0.3c-4.5,0-9,0.4-13.3,1.4
		c-23.1,5.5-35.7,38.3-16.6,59.4c18.5,20.5,43.5,22.4,68.5,16.6C1798.6,286.5,1817.5,258.3,1817.3,229z"/>
	<path class="st0" d="M1916.1,744.2c-9.7,0-18.8,0-28.6,0c0-11.8,0-23.7,0-35.4c-0.7-0.4-1.4-1-2.2-1.4c-1.4,2.2-2.7,4.3-4.5,6.4
		c-15.6,17.6-34.7,29.9-58.2,32.4c-24,2.5-48.4,3.3-70.7-9.4c-26.7-15.2-41.8-38.4-42.6-68.8c-1.4-47-1-94.1-1.4-141
		c0-8.8,0.3-9.1,9.1-9.1c4.9,0,9.8,0.1,14.6,0c4.6-0.1,6.5,1.9,6.5,6.5c-0.1,13.3,0,26.7,0,40c0,28.3,0,56.6,0.3,85
		c0.1,17.2,3.2,33.7,13.6,48c7.7,10.8,18.3,17.2,30.9,20.5c26.9,7.2,52.2,3.3,75.1-12.6c12.9-9,20.4-21.8,24.3-36.7
		c3.2-12.3,4.8-25,4.6-37.9c-0.3-33.7,0.1-67.5,0.1-101.1c0-9.4,1.9-11.3,11.4-11.3c4.2,0,8.2,0,12.4,0c3.5,0,5.3,1.7,5.2,5.3
		c0,1.3,0,2.6,0,3.8c0,70.5,0,141,0,211.5C1916.1,740.4,1916.1,742.2,1916.1,744.2z"/>
	<path class="st0" d="M1664.2,743.9c-9.8,0-19.1,0-28.9,0c0-2.5,0-4.6,0-6.8c0-40.5,0.3-80.8-0.3-121.1c-0.1-13.4-1.9-26.9-7.7-39.4
		c-8.4-18.2-22.5-29.3-42.2-32.7c-22.1-3.8-43.9-3-64,8.5c-17.6,10.1-28.9,25.4-33.1,45.2c-2.2,10.1-3,20.7-3.2,31.1
		c-0.7,37.1-1,74.3-1.4,111.3c0,1.2-0.1,2.5-0.3,3.9c-9.1,0-18.1,0-27.7,0c0-2.2,0-4,0-5.9c0-70.1,0-140.3,0-210.4
		c0-9,0.9-9.8,9.8-9.8c5.8,0,11.6,0,18.2,0c0,12,0,23.7,0,37c5.2-4.9,9-8.7,12.9-12.3c18.5-17.8,40.3-27.5,66.2-27.2
		c12.7,0.1,25.9-0.4,38.1,2.5c33.7,7.9,54.9,29.2,60.2,64c2.6,16.5,3.9,33.2,4,49.8c0.4,36.6-0.3,73.3-0.6,109.8
		C1664.5,742.2,1664.4,742.9,1664.2,743.9z"/>
	<path class="st0" d="M1585.2,48.5c0,15.6,0,31.1,0,47.2c22.1,0,43.8,0,66,0c0,8.7,0,16.6,0,25.3c-21.8,0-43.5,0-65.6,0
		c-0.1,2.3-0.3,4.2-0.3,5.9c0,42.6,0,85.1,0.1,127.7c0,17.2,9,31.6,23.1,36.4c12.9,4.3,25.6,2.7,37.9-2.7
		c11.1-5.1,11.6-4.9,16.3,6.6c4,9.7,2.9,13.6-7.1,16.9c-23.8,7.9-48,10.8-71.5-0.9c-15.5-7.8-24-21.2-26.7-37.9
		c-1.7-10.4-2-21.1-2.2-31.8c-0.3-37.9-0.1-75.7,0-113.6c0-5.3-1.6-6.6-6.6-6.5c-10.3,0.4-20.5,0.1-31.6,0.1
		c0-7.2-0.1-14.2,0.1-21.1c0-1,2.7-2.5,4.3-2.5c7.8-0.3,15.5-0.1,23.3-0.1c10.4,0,10.5,0,10.5-10.1c0-9.2-0.3-18.3-0.3-27.6
		c0-9.4,3-12.1,12.4-12.1c5.2,0,10.4,0.1,15.7,0.1C1583.8,47.9,1584.1,48.2,1585.2,48.5z"/>
	<path class="st0" d="M470.4,475.7c0,2.8,0,5,0,7c0,34.8,0,69.8,0,104.6c0,10.2-9.4,22-19.6,23.9c-2.7,0.4-6.1,0-8.4-1.4
		c-8.5-5.3-15.3-12.3-15.3-23.2c0-42.5,0-84.9,0.3-127.4c0.1-17.3,8.5-25,26-25c28.7,0,57.3-0.1,86,0.1c8.5,0,15.8,3.9,19.2,11.9
		c3.2,7.7,2.8,15.6-2.8,22.5c-5,5.9-12,7-19,7c-19.8,0.1-39.8,0-59.7,0C475.2,475.7,473.1,475.7,470.4,475.7z"/>
	<path class="st0" d="M744.3,661.7c0,20.3,0,40.6,0,60.7c0,3.9-0.3,7.8-1.1,11.6c-1.7,9.1-7,14-16.4,14.8
		c-9.1,0.6-18.3,0.6-27.5,0.6c-21.7,0-43.2,0.3-65-0.1c-5.3-0.1-11.1-2.2-15.8-4.9c-8.4-4.5-7.7-13.3-6.4-20.8s7.3-11.7,14.2-14.2
		c3.2-1.1,6.9-1.4,10.3-1.4c19.8-0.1,39.8-0.3,59.7,0c5.3,0,7-1.1,6.9-6.7c-0.3-36.1-0.3-72.2,0.1-108.1c0-4.2,1.8-9.4,4.6-12.5
		c5-5.9,11.9-9.9,20.1-7.5c8,2.4,16.1,13.7,16.2,22.5c0.1,17.5,0,35.1,0,52.6C744.5,652.6,744.5,657.2,744.3,661.7
		C744.5,661.7,744.5,661.7,744.3,661.7z"/>
	<path class="st0" d="M1916.4,315.1c-8.5,0-16.6,0-25.1,0c0-102.3,0-204.4,0-307c8.4,0,16.5,0,25.1,0
		C1916.4,110.2,1916.4,212.3,1916.4,315.1z"/>
	<path class="st0" d="M1505.3,314.9c-9.2,0-17.9,0-26.9,0c0-72.4,0-144.5,0-217.3c8.1,0,16.2-0.1,24.3,0.1c0.9,0,1.9,1.6,2.5,2.6
		c0.4,0.7,0.1,1.7,0.1,2.6c0,69.1,0,138,0,207C1505.3,311.5,1505.3,312.9,1505.3,314.9z"/>
	<path class="st0" d="M1159.1,97.9c8.8,0,17.3,0,26.3,0c0,72.2,0,144.5,0,216.9c-8.8,0-17.3,0-26.3,0
		C1159.1,242.5,1159.1,170.4,1159.1,97.9z"/>
	<path class="st0" d="M701.1,435c8.1,0,16.4-0.3,24.5,0c11.6,0.6,17.3,6.9,17.3,18.3c0.1,15.8-5,21.7-20.8,22.2
		c-15.1,0.4-30.3,0.3-45.4-0.1c-11.9-0.4-17.8-7.3-17.9-19c-0.1-15.1,4.6-20.4,19.7-21.4c7.5-0.4,15.1,0,22.8,0
		C701.1,435,701.1,435,701.1,435z"/>
	<path class="st0" d="M472.4,749.5c-7.8,0-15.6,0.1-23.5,0c-13.1-0.3-19.6-7-19.7-20c0-14.5,5.5-20.4,20.3-20.4
		c16.8,0,33.6,0,50.1,1.1c9.5,0.6,13.9,6.6,13.7,16.2c0,4.1,0.4,8.4-1,12c-2.8,6.9-8.3,11.1-16.2,11.1
		C488.3,749.5,480.3,749.5,472.4,749.5z"/>
	<path class="st0" d="M1511.7,32.3c0,12.4-7.1,19.6-19.2,19.6c-12.4,0-19.6-7.1-19.8-19.2c0-12.3,7.2-19.6,19.2-19.6
		C1504.4,13.2,1511.7,20.3,1511.7,32.3z"/>
	<path class="st0" d="M1171.7,13.2c12.4,0,19.4,7.1,19.4,19.4c0,12.4-6.9,19.5-19.2,19.5c-12,0-19.5-7.4-19.5-19.4
		C1152.3,20.6,1159.7,13.2,1171.7,13.2z"/>
	<path class="st0" d="M586.2,611.9c-12,0-20.8-8.5-20.8-20.1c0-10.8,9.7-19.8,21.4-19.7c11.9,0,20.3,8.4,20.4,20
		C607,601.5,598.9,613.3,586.2,611.9z"/>
	<path class="st0" d="M174.1,611.9c-12.3,0-21-8.3-20.8-20.3c0-10.3,9.7-19.7,20.4-19.7c11.3,0,21.5,9.5,21.4,20.1
		C195.2,602.6,185,611.9,174.1,611.9z"/>
	<path class="st0" d="M586.2,200.4c-12.5,0-20.8-7.7-21-18.9c0-10.9,10.6-21.5,21.2-21.4c10.5,0.1,20.8,10.8,20.6,21.4
		C606.9,193,598.8,200.4,586.2,200.4z"/>
	<path class="st0" d="M174.4,160.5c9.5-2.1,21.4,12.3,20.8,21c-0.6,10.5-10.8,20.3-21.8,20.3c-10.5,0-20-9.7-20.1-20.3
		C153.1,172.3,163.2,158.6,174.4,160.5z"/>
</g>
</svg>
